<svg class="svg" viewBox="0 0 404 147" xmlns="http://www.w3.org/2000/svg">
  <path fill-rule="evenodd" clip-rule="evenodd" d="M0 146.997H114.989V69.9097C114.989 52.9421 106.848 36.772 93.2093 26.6557L57.2402 0L21.5922 26.6664C8.07165 36.7827 0 52.8993 0 69.7812V146.997ZM7.11354 139.889H107.881V69.9151C107.881 55.1902 100.815 41.1558 88.9808 32.3722L57.2616 8.86918L25.8528 32.3615C14.12 41.1344 7.11354 55.1313 7.11354 69.7866V139.889ZM49.6771 45.2561L49.9447 47.1348C53.7825 45.5772 55.2491 48.3605 55.8111 51.8772C56.1644 54.0878 56.1644 56.5821 56.1644 58.4769C56.1644 63.3798 50.4585 66.7412 50.4585 66.7412V70.5469H66.3342V66.7412C66.3342 66.7412 60.6284 63.3798 60.6284 58.4769C60.6284 56.5821 60.6284 54.0878 60.9817 51.8772C61.5437 48.3605 63.0103 45.5772 66.8481 47.1348L67.1157 45.2561C67.1157 45.2561 63.6579 40.4923 58.3964 40.4923C53.1348 40.4923 49.6771 45.2561 49.6771 45.2561ZM32.1902 102.384L28.8502 106.425C34.6363 111.499 43.2004 115.246 51.4487 114.448C58.8727 113.731 65.0656 107.902 66.0183 98.2514C66.0358 98.0695 66.0548 97.8884 66.0739 97.7071L66.074 97.7058L66.0742 97.7045L66.0743 97.7032C66.1425 97.0534 66.211 96.4014 66.211 95.7036V75.5191H50.3996V100.837C41.7465 103.566 36.2355 102.881 32.4371 102.409L32.1902 102.378V102.384ZM12.0806 134.842C19.6491 128.617 27.0142 122.231 34.0796 115.391L34.0743 115.385C35.6051 116.456 37.6605 117.43 39.9674 117.987C33.9779 123.853 27.6351 129.441 21.196 134.906H12.0806V134.842ZM69.7063 104.144C69.2674 106.2 68.3629 108.555 67.2174 110.385C75.2302 118.564 84.2813 126.957 93.5787 134.906H102.849C91.1219 125.287 80.2669 115.283 69.7063 104.139V104.144ZM71.1995 86.3566L71.1942 86.3633H71.1995V86.3566ZM71.1995 86.3566C79.4789 75.9678 89.5123 61.4981 97.2986 49.1898C96.212 47.295 95.0077 45.4752 93.6374 43.7624C87.0592 54.3122 78.206 67.4688 71.1995 76.52V86.3566ZM45.4112 86.4274V76.5948C38.2173 67.0458 28.8664 53.3112 22.2293 42.5633C20.8323 44.1958 19.5744 45.9247 18.4504 47.7445C26.3668 60.4033 36.7829 75.4494 45.4112 86.4328V86.4274ZM14.7355 84.4261H34.5827V95.3132H14.7355V84.4261ZM100.334 84.4261H80.4864V95.3132H100.334V84.4261ZM167.61 117.628C162.471 117.628 157.981 116.461 154.137 114.122C150.294 111.783 147.313 108.507 145.188 104.305C143.058 100.103 141.993 95.2004 141.993 89.5855C141.993 83.9707 143.084 79.1266 145.263 74.8767C147.447 70.6161 150.551 67.2814 154.571 64.8674C158.591 62.4534 163.355 61.2491 168.862 61.2491C175.087 61.2491 180.285 62.7585 184.433 65.7613C188.587 68.7748 191.284 72.9337 192.531 78.2221H183.186C182.356 75.3103 180.724 73.0354 178.283 71.3708C175.842 69.7115 172.7 68.8712 168.862 68.8712C163.151 68.8712 158.66 70.7178 155.39 74.4057C152.12 78.0936 150.482 83.1785 150.482 89.6605C150.482 96.1424 152.093 101.217 155.31 104.851C158.527 108.48 162.814 110.305 168.156 110.305C173.498 110.305 177.619 108.769 180.344 105.713C183.068 102.64 184.668 98.5671 185.134 93.4768H170.34V87.0966H193.468V116.686H185.916L185.214 108.667C183.395 111.52 181.114 113.731 178.358 115.289C175.607 116.846 172.026 117.628 167.615 117.628H167.61ZM209.772 115.096C212.705 116.782 216.008 117.628 219.696 117.628H219.701C223.383 117.628 226.713 116.782 229.667 115.096C232.627 113.399 234.977 111.039 236.717 108.004C238.451 104.969 239.323 101.42 239.323 97.3734C239.323 93.3269 238.451 89.7782 236.717 86.7433C234.972 83.703 232.638 81.3479 229.705 79.6618C226.772 77.9758 223.421 77.1301 219.781 77.1301C216.141 77.1301 212.85 77.9758 209.89 79.6618C206.93 81.3479 204.58 83.7084 202.846 86.7433C201.106 89.7782 200.234 93.3162 200.234 97.3734C200.234 101.431 201.09 104.969 202.803 108.004C204.516 111.039 206.833 113.399 209.772 115.096ZM225.182 109.058C223.496 110.043 221.665 110.535 219.696 110.535C217.715 110.535 215.901 110.043 214.241 109.058C212.582 108.073 211.239 106.607 210.195 104.658C209.156 102.71 208.637 100.285 208.637 97.3734C208.637 94.4617 209.156 92.0477 210.195 90.0993C211.239 88.151 212.593 86.6844 214.284 85.6995C215.976 84.7147 217.806 84.2115 219.776 84.2115C221.746 84.2115 223.571 84.7147 225.262 85.6995C226.943 86.6844 228.297 88.151 229.309 90.0993C230.326 92.0477 230.829 94.4617 230.829 97.3734C230.829 100.285 230.31 102.71 229.271 104.658C228.233 106.607 226.873 108.073 225.182 109.058ZM255.595 116.686L241.111 78.0616H249.755L260.498 108.817L271.241 78.0616H279.81L265.406 116.686H255.595ZM281.33 115.631C282.342 116.654 283.626 117.157 285.184 117.157C286.742 117.157 288.016 116.648 289 115.631C289.985 114.625 290.478 113.469 290.478 112.013C290.478 110.557 289.985 109.331 289 108.314C288.016 107.308 286.742 106.805 285.184 106.805C283.626 106.805 282.342 107.308 281.33 108.314C280.313 109.331 279.81 110.616 279.81 112.013C279.81 113.41 280.319 114.625 281.33 115.631ZM315.314 117.628C311.626 117.628 308.323 116.782 305.39 115.096C302.451 113.399 300.134 111.039 298.421 108.004C296.708 104.969 295.852 101.431 295.852 97.3734C295.852 93.3162 296.724 89.7782 298.464 86.7433C300.198 83.7084 302.548 81.3479 305.508 79.6618C308.468 77.9758 311.759 77.1301 315.399 77.1301C319.039 77.1301 322.39 77.9758 325.323 79.6618C328.256 81.3479 330.59 83.703 332.335 86.7433C334.069 89.7782 334.941 93.3269 334.941 97.3734C334.941 101.42 334.069 104.969 332.335 108.004C330.595 111.039 328.245 113.399 325.285 115.096C322.331 116.782 319.001 117.628 315.319 117.628H315.314ZM315.314 110.535C317.283 110.535 319.114 110.043 320.8 109.058C322.491 108.073 323.851 106.607 324.889 104.658C325.928 102.71 326.447 100.285 326.447 97.3734C326.447 94.4617 325.944 92.0477 324.927 90.0993C323.915 88.151 322.561 86.6844 320.88 85.6995C319.189 84.7147 317.364 84.2115 315.394 84.2115C313.424 84.2115 311.593 84.7147 309.902 85.6995C308.211 86.6844 306.857 88.151 305.813 90.0993C304.774 92.0477 304.255 94.4617 304.255 97.3734C304.255 100.285 304.774 102.71 305.813 104.658C306.857 106.607 308.2 108.073 309.859 109.058C311.519 110.043 313.333 110.535 315.314 110.535ZM342.333 116.68V116.685L342.322 116.68H342.333ZM342.333 116.68H350.576V96.7472C350.576 92.6953 351.497 89.5801 353.343 87.4016C355.179 85.2231 357.529 84.1366 360.387 84.1366C366.152 84.1366 369.032 87.8727 369.032 95.3395V116.68H377.285V96.7472C377.285 92.6953 378.206 89.5801 380.053 87.4016C381.889 85.2231 384.265 84.1366 387.177 84.1366C392.888 84.1366 395.741 87.8727 395.741 95.3395V116.68H403.995V94.4938C403.995 88.7344 402.624 84.3935 399.873 81.4817C397.117 78.586 393.332 77.1301 388.504 77.1301C385.748 77.1301 383.195 77.7831 380.834 79.0784C378.468 80.3737 376.59 82.1401 375.187 84.3721C372.8 79.5548 368.545 77.1354 362.416 77.1354C359.718 77.1354 357.342 77.7082 355.292 78.8429C353.242 79.9883 351.598 81.5459 350.351 83.5157L349.65 78.0614H342.333V116.68Z" />
</svg>
