<svg class="svg" xmlns="http://www.w3.org/2000/svg" viewBox="0 0 231 197">
  <path fill-rule="evenodd" clip-rule="evenodd" d="M64.8079 129.586H166.177V61.6265C166.177 46.6679 159 32.4125 146.976 23.4939L115.266 -0.00561523L83.8435 23.5034C71.9238 32.4219 64.8079 46.6302 64.8079 61.5132V129.586ZM71.0792 123.32H159.915V61.6312C159.915 48.6498 153.686 36.2771 143.253 28.5336L115.29 7.81342L87.5997 28.5242C77.2561 36.2583 71.0792 48.5979 71.0792 61.5179V123.32ZM108.603 39.8919L108.839 41.5482C112.222 40.175 113.515 42.6288 114.011 45.729C114.322 47.6779 114.322 49.8768 114.322 51.5473C114.322 55.8697 109.292 58.8331 109.292 58.8331V62.1881H123.288V58.8331C123.288 58.8331 118.258 55.8697 118.258 51.5473C118.258 49.8768 118.258 47.6779 118.569 45.729C119.065 42.6288 120.358 40.175 123.741 41.5482L123.977 39.8919C123.977 39.8919 120.929 35.6922 116.29 35.6922C111.651 35.6922 108.603 39.8919 108.603 39.8919ZM90.2423 93.818L93.1869 90.2553V90.2506L93.4046 90.2777C96.7532 90.6938 101.612 91.2975 109.24 88.8916V66.5718H123.18V84.3663C123.18 84.9814 123.119 85.5563 123.059 86.1291C123.042 86.2901 123.025 86.4509 123.01 86.6124C122.17 95.1204 116.71 100.259 110.165 100.891C102.893 101.595 95.3433 98.2914 90.2423 93.818ZM22.5841 196.994C18.0541 196.994 14.095 195.966 10.7069 193.904C7.31885 191.842 4.69048 188.954 2.81712 185.249C0.93904 181.545 0 177.223 0 172.273C0 167.323 0.962634 163.052 2.88318 159.305C4.80845 155.549 7.54535 152.61 11.0892 150.481C14.633 148.353 18.8327 147.291 23.6883 147.291C29.1763 147.291 33.7582 148.622 37.4153 151.269C41.0771 153.926 43.4554 157.593 44.5548 162.255H36.3158C35.5844 159.688 34.1452 157.682 31.9934 156.215C29.8416 154.752 27.0717 154.011 23.6883 154.011C18.6534 154.011 14.6943 155.639 11.8111 158.89C8.92796 162.141 7.484 166.624 7.484 172.339C7.484 178.053 8.90436 182.527 11.7404 185.731C14.5763 188.93 18.3561 190.539 23.0655 190.539C27.7748 190.539 31.4083 189.185 33.8102 186.49C36.212 183.782 37.6229 180.191 38.0335 175.703H24.9907V170.078H45.3806V196.164H38.7224L38.1042 189.095C36.4999 191.61 34.4897 193.559 32.0595 194.932C29.634 196.306 26.4771 196.994 22.5889 196.994H22.5841ZM68.5076 196.995C65.2563 196.995 62.3448 196.249 59.7589 194.763C57.1683 193.267 55.1251 191.186 53.6151 188.51C52.1051 185.835 51.3501 182.716 51.3501 179.139C51.3501 175.562 52.1192 172.443 53.6528 169.767C55.1817 167.092 57.2533 165.011 59.8628 163.524C62.4723 162.038 65.3743 161.292 68.5831 161.292C71.7919 161.292 74.7458 162.038 77.3317 163.524C79.9176 165.011 81.975 167.087 83.5133 169.767C85.0422 172.443 85.8114 175.571 85.8114 179.139C85.8114 182.706 85.0422 185.835 83.5133 188.51C81.9797 191.186 79.9082 193.267 77.2987 194.763C74.6939 196.249 71.7588 196.995 68.5123 196.995H68.5076ZM68.5076 190.747C70.2441 190.747 71.8579 190.313 73.3443 189.445C74.8355 188.576 76.0341 187.283 76.9495 185.566C77.865 183.848 78.3227 181.71 78.3227 179.143C78.3227 176.576 77.8791 174.448 76.9825 172.731C76.086 171.013 74.8968 169.72 73.4151 168.852C71.924 167.984 70.3149 167.54 68.5784 167.54C66.8419 167.54 65.228 167.984 63.7369 168.852C62.2458 169.72 61.0519 171.013 60.1317 172.731C59.2163 174.448 58.7586 176.576 58.7586 179.143C58.7586 181.71 59.2163 183.848 60.1317 185.566C61.0519 187.283 62.2363 188.576 63.6991 189.445C65.162 190.313 66.7616 190.747 68.5076 190.747ZM87.3825 162.118L100.152 196.169H108.801L121.499 162.118H113.945L104.474 189.232L95.0034 162.118H87.3825ZM126.237 196.583C124.864 196.583 123.732 196.14 122.84 195.239C121.948 194.351 121.5 193.28 121.5 192.049C121.5 190.817 121.943 189.685 122.84 188.788C123.732 187.901 124.864 187.457 126.237 187.457C127.611 187.457 128.734 187.901 129.602 188.788C130.47 189.685 130.904 190.765 130.904 192.049C130.904 193.332 130.47 194.351 129.602 195.239C128.734 196.135 127.611 196.583 126.237 196.583ZM144.051 194.763C146.636 196.249 149.548 196.995 152.799 196.995H152.804C156.05 196.995 158.986 196.249 161.59 194.763C164.2 193.267 166.271 191.186 167.805 188.51C169.334 185.835 170.103 182.706 170.103 179.139C170.103 175.571 169.334 172.443 167.805 169.767C166.267 167.087 164.209 165.011 161.623 163.524C159.037 162.038 156.084 161.292 152.875 161.292C149.666 161.292 146.764 162.038 144.154 163.524C141.545 165.011 139.473 167.092 137.944 169.767C136.411 172.443 135.642 175.562 135.642 179.139C135.642 182.716 136.397 185.835 137.907 188.51C139.417 191.186 141.46 193.267 144.051 194.763ZM157.636 189.445C156.15 190.313 154.536 190.747 152.799 190.747C151.053 190.747 149.454 190.313 147.991 189.445C146.528 188.576 145.344 187.283 144.423 185.566C143.508 183.848 143.05 181.71 143.05 179.143C143.05 176.576 143.508 174.448 144.423 172.731C145.344 171.013 146.537 169.72 148.029 168.852C149.52 167.984 151.133 167.54 152.87 167.54C154.607 167.54 156.216 167.984 157.707 168.852C159.188 169.72 160.378 171.013 161.274 172.731C162.171 174.448 162.614 176.576 162.614 179.143C162.614 181.71 162.157 183.848 161.241 185.566C160.326 187.283 159.127 188.576 157.636 189.445ZM176.62 196.168V196.164H183.887V178.591C183.887 175.019 184.698 172.272 186.326 170.352C187.945 168.431 190.016 167.473 192.536 167.473C197.618 167.473 200.157 170.767 200.157 177.35V196.164H207.434V178.591C207.434 175.019 208.245 172.272 209.873 170.352C211.492 168.431 213.587 167.473 216.154 167.473C221.189 167.473 223.704 170.767 223.704 177.35V196.164H230.98V176.604C230.98 171.527 229.772 167.7 227.347 165.133C224.917 162.58 221.581 161.296 217.324 161.296C214.894 161.296 212.643 161.872 210.562 163.014C208.476 164.156 206.82 165.713 205.584 167.681C203.479 163.434 199.728 161.301 194.325 161.301C191.946 161.301 189.851 161.806 188.044 162.806C186.237 163.816 184.788 165.189 183.689 166.926L183.07 162.117H176.62V196.164H176.61L176.62 196.168ZM75.4584 118.87C82.1308 113.382 88.6238 107.753 94.8526 101.722L94.8479 101.717C96.1975 102.661 98.0095 103.52 100.043 104.011C94.763 109.182 89.1712 114.109 83.4945 118.927H75.4584V118.87ZM126.26 91.8078C125.873 93.6198 125.076 95.6961 124.066 97.3099C131.13 104.52 139.11 111.919 147.306 118.927H155.479C145.14 110.447 135.57 101.628 126.26 91.8031V91.8078ZM127.572 76.126L127.568 76.132H127.572V76.126ZM150.581 43.36C143.717 54.2109 134.872 66.9673 127.572 76.126V67.4541C133.749 59.4746 141.554 47.8759 147.354 38.5751C148.562 40.0851 149.623 41.6895 150.581 43.36ZM104.842 76.1884V67.52C98.5001 59.1017 90.2564 46.9933 84.4051 37.518C83.1735 38.9572 82.0646 40.4814 81.0736 42.0858C88.0527 53.2457 97.2355 66.5102 104.842 76.1931V76.1884ZM77.7989 74.4241H95.2963V84.0221H77.7989V74.4241ZM153.262 74.4241H135.764V84.0221H153.262V74.4241Z" />
</svg>
